<svg width="165" height="188" viewBox="0 0 165 188" fill="none" xmlns="http://www.w3.org/2000/svg">
<path d="M83.2964 100.388L85.2701 135.291L96.6665 136.866L118.043 99.0298L135.844 97.3122L105.634 151.915L84.2127 153.699L84.265 187.132L58.2828 143.528L83.2964 100.388Z" fill="white"/>
<path d="M76.1885 87.4824L44.76 71.9392L37.8236 81.2386L60.4176 118.888L53.2305 135.482L20.3118 81.7154L29.2083 61.8856L9.03702e-05 45.3709L50.7392 43.9893L76.1885 87.4824Z" fill="white"/>
<path d="M88.9218 88.5858L118.356 69.5335L113.914 58.816L70.006 58.9683L59.4244 44.3031L122.463 43.5256L134.95 61.3145L164.083 44.667L139.312 88.9701L88.9218 88.5858Z" fill="white"/>
</svg>
