<svg width="299" height="39" viewBox="0 0 299 39" fill="none" xmlns="http://www.w3.org/2000/svg">
<path d="M0.114063 38H27.3141V32H8.81406L26.8141 6.1V0.749997H1.16406V6.75H18.1641L0.114063 32.65V38ZM43.9285 38.6C46.6952 38.6 49.1118 37.9833 51.1785 36.75C53.2785 35.4833 54.7452 33.8833 55.5785 31.95L50.2785 29.35C49.6785 30.3833 48.8452 31.2333 47.7785 31.9C46.7452 32.5333 45.4785 32.85 43.9785 32.85C42.0118 32.85 40.3618 32.25 39.0285 31.05C37.6952 29.85 36.9285 28.25 36.7285 26.25H56.3285C56.4619 25.8833 56.5452 25.4667 56.5785 25C56.6452 24.5 56.6785 24 56.6785 23.5C56.6785 21.0667 56.1618 18.85 55.1285 16.85C54.0952 14.85 52.5952 13.25 50.6285 12.05C48.6618 10.8167 46.2618 10.2 43.4285 10.2C40.8952 10.2 38.5952 10.8167 36.5285 12.05C34.4952 13.2833 32.8785 14.9667 31.6785 17.1C30.5118 19.2 29.9285 21.6167 29.9285 24.35C29.9285 26.9833 30.5118 29.3833 31.6785 31.55C32.8452 33.7167 34.4785 35.4333 36.5785 36.7C38.6785 37.9667 41.1285 38.6 43.9285 38.6ZM43.4285 15.6C45.1619 15.6 46.5952 16.1333 47.7285 17.2C48.8952 18.2333 49.5452 19.5833 49.6785 21.25H36.8785C37.2452 19.45 38.0118 18.0667 39.1785 17.1C40.3785 16.1 41.7952 15.6 43.4285 15.6ZM61.6438 38H68.1938V22.85C68.1938 20.7833 68.7604 19.1833 69.8938 18.05C71.0604 16.8833 72.5604 16.3 74.3938 16.3H76.7438V10.5H75.1438C73.4771 10.5 72.0104 10.8 70.7438 11.4C69.4771 12 68.4938 13.0833 67.7938 14.65V10.8H61.6438V38ZM93.6449 38.6C96.2783 38.6 98.6783 38 100.845 36.8C103.012 35.5667 104.745 33.8833 106.045 31.75C107.345 29.5833 107.995 27.1333 107.995 24.4C107.995 21.6667 107.345 19.2333 106.045 17.1C104.778 14.9667 103.062 13.2833 100.895 12.05C98.7283 10.8167 96.3116 10.2 93.6449 10.2C90.9449 10.2 88.5116 10.8167 86.3449 12.05C84.1783 13.2833 82.4449 14.9667 81.1449 17.1C79.8783 19.2333 79.2449 21.6667 79.2449 24.4C79.2449 27.1333 79.8783 29.5667 81.1449 31.7C82.4449 33.8333 84.1783 35.5167 86.3449 36.75C88.5449 37.9833 90.9783 38.6 93.6449 38.6ZM93.6449 32.6C92.1783 32.6 90.8616 32.25 89.6949 31.55C88.5616 30.85 87.6616 29.8833 86.9949 28.65C86.3616 27.3833 86.0449 25.9667 86.0449 24.4C86.0449 22.8333 86.3616 21.4333 86.9949 20.2C87.6616 18.9667 88.5616 18 89.6949 17.3C90.8616 16.5667 92.1783 16.2 93.6449 16.2C95.1116 16.2 96.3949 16.5667 97.4949 17.3C98.6283 18 99.5116 18.9667 100.145 20.2C100.812 21.4333 101.145 22.8333 101.145 24.4C101.145 25.9667 100.812 27.3833 100.145 28.65C99.5116 29.8833 98.6283 30.85 97.4949 31.55C96.3949 32.25 95.1116 32.6 93.6449 32.6ZM139.899 38.6C142.565 38.6 144.949 38.15 147.049 37.25C149.182 36.35 150.982 35.1667 152.449 33.7C153.915 32.2 154.965 30.5667 155.599 28.8L149.499 25.95C148.765 27.8167 147.565 29.3667 145.899 30.6C144.265 31.8 142.265 32.4 139.899 32.4C137.565 32.4 135.515 31.85 133.749 30.75C131.982 29.65 130.599 28.1333 129.599 26.2C128.599 24.2333 128.099 21.95 128.099 19.35C128.099 16.75 128.599 14.4833 129.599 12.55C130.599 10.5833 131.982 9.06667 133.749 8C135.515 6.9 137.565 6.35 139.899 6.35C142.265 6.35 144.265 6.96667 145.899 8.2C147.565 9.4 148.765 10.9333 149.499 12.8L155.599 9.95C154.965 8.18333 153.915 6.56667 152.449 5.1C150.982 3.6 149.182 2.4 147.049 1.5C144.949 0.599999 142.565 0.149999 139.899 0.149999C137.232 0.149999 134.765 0.633332 132.499 1.6C130.232 2.53333 128.265 3.86667 126.599 5.6C124.932 7.3 123.632 9.33333 122.699 11.7C121.765 14.0333 121.299 16.5833 121.299 19.35C121.299 22.1167 121.765 24.6833 122.699 27.05C123.632 29.3833 124.932 31.4167 126.599 33.15C128.265 34.8833 130.232 36.2333 132.499 37.2C134.765 38.1333 137.232 38.6 139.899 38.6ZM168.331 38.6C171.865 38.6 174.698 37.4333 176.831 35.1V38H183.031V19.9C183.031 18 182.548 16.3167 181.581 14.85C180.615 13.3833 179.281 12.25 177.581 11.45C175.915 10.6167 173.965 10.2 171.731 10.2C168.998 10.2 166.565 10.85 164.431 12.15C162.298 13.45 160.831 15.1667 160.031 17.3L165.381 19.9C165.881 18.6667 166.665 17.6833 167.731 16.95C168.798 16.1833 170.048 15.8 171.481 15.8C172.981 15.8 174.181 16.2 175.081 17C176.015 17.7667 176.481 18.7333 176.481 19.9V20.8L168.381 22.1C165.181 22.6333 162.815 23.65 161.281 25.15C159.748 26.65 158.981 28.5333 158.981 30.8C158.981 33.2 159.831 35.1 161.531 36.5C163.231 37.9 165.498 38.6 168.331 38.6ZM165.781 30.55C165.781 28.65 167.065 27.45 169.631 26.95L176.481 25.8V26.9C176.481 28.7667 175.831 30.35 174.531 31.65C173.265 32.95 171.598 33.6 169.531 33.6C168.431 33.6 167.531 33.3333 166.831 32.8C166.131 32.2333 165.781 31.4833 165.781 30.55ZM189.085 38H195.635V22.85C195.635 20.7833 196.202 19.1833 197.335 18.05C198.502 16.8833 200.002 16.3 201.835 16.3H204.185V10.5H202.585C200.918 10.5 199.452 10.8 198.185 11.4C196.918 12 195.935 13.0833 195.235 14.65V10.8H189.085V38ZM222.636 38.6C225.27 38.6 227.62 37.9833 229.686 36.75C231.753 35.4833 233.386 33.7833 234.586 31.65C235.786 29.4833 236.386 27.0667 236.386 24.4C236.386 21.7333 235.786 19.3333 234.586 17.2C233.386 15.0333 231.753 13.3333 229.686 12.1C227.62 10.8333 225.286 10.2 222.686 10.2C219.153 10.2 216.37 11.3167 214.336 13.55V0.749997H207.786V38H213.936V34.95C214.936 36.1167 216.186 37.0167 217.686 37.65C219.22 38.2833 220.87 38.6 222.636 38.6ZM221.886 32.6C220.453 32.6 219.153 32.25 217.986 31.55C216.853 30.85 215.953 29.8833 215.286 28.65C214.653 27.4167 214.336 26 214.336 24.4C214.336 22.8 214.653 21.3833 215.286 20.15C215.953 18.9167 216.853 17.95 217.986 17.25C219.153 16.55 220.453 16.2 221.886 16.2C223.386 16.2 224.703 16.5667 225.836 17.3C227.003 18 227.92 18.9667 228.586 20.2C229.253 21.4333 229.586 22.8333 229.586 24.4C229.586 25.9667 229.253 27.3833 228.586 28.65C227.92 29.8833 227.003 30.85 225.836 31.55C224.703 32.25 223.386 32.6 221.886 32.6ZM254.68 38.6C257.313 38.6 259.713 38 261.88 36.8C264.047 35.5667 265.78 33.8833 267.08 31.75C268.38 29.5833 269.03 27.1333 269.03 24.4C269.03 21.6667 268.38 19.2333 267.08 17.1C265.813 14.9667 264.097 13.2833 261.93 12.05C259.763 10.8167 257.347 10.2 254.68 10.2C251.98 10.2 249.547 10.8167 247.38 12.05C245.213 13.2833 243.48 14.9667 242.18 17.1C240.913 19.2333 240.28 21.6667 240.28 24.4C240.28 27.1333 240.913 29.5667 242.18 31.7C243.48 33.8333 245.213 35.5167 247.38 36.75C249.58 37.9833 252.013 38.6 254.68 38.6ZM254.68 32.6C253.213 32.6 251.897 32.25 250.73 31.55C249.597 30.85 248.697 29.8833 248.03 28.65C247.397 27.3833 247.08 25.9667 247.08 24.4C247.08 22.8333 247.397 21.4333 248.03 20.2C248.697 18.9667 249.597 18 250.73 17.3C251.897 16.5667 253.213 16.2 254.68 16.2C256.147 16.2 257.43 16.5667 258.53 17.3C259.663 18 260.547 18.9667 261.18 20.2C261.847 21.4333 262.18 22.8333 262.18 24.4C262.18 25.9667 261.847 27.3833 261.18 28.65C260.547 29.8833 259.663 30.85 258.53 31.55C257.43 32.25 256.147 32.6 254.68 32.6ZM273.997 38H280.547V22.05C280.547 20.2833 281.047 18.8667 282.047 17.8C283.081 16.7333 284.414 16.2 286.047 16.2C287.681 16.2 288.997 16.7333 289.997 17.8C291.031 18.8333 291.547 20.25 291.547 22.05V38H298.097V20.5C298.097 18.4667 297.664 16.6833 296.797 15.15C295.931 13.5833 294.714 12.3667 293.147 11.5C291.614 10.6333 289.847 10.2 287.847 10.2C286.147 10.2 284.614 10.5333 283.247 11.2C281.914 11.8667 280.881 12.85 280.147 14.15V10.8H273.997V38Z" fill="white"/>
</svg>
