<svg width="75" height="73" viewBox="0 0 75 73" fill="none" xmlns="http://www.w3.org/2000/svg">
<ellipse cx="37.4692" cy="30.0386" rx="30.7748" ry="29.3865" transform="rotate(1.22681 37.4692 30.0386)" fill="#00C1B6"/>
<g filter="url(#filter0_d_121_6)">
<path d="M37.7527 31.367L38.0354 39.4237L40.6551 39.8432L45.7704 31.2255L49.8827 30.9174L42.6482 43.3571L37.7007 43.6625L37.5477 51.3709L31.7727 41.1897L37.7527 31.367Z" fill="white"/>
<path d="M36.1776 28.3563L29.0084 24.6176L27.3633 26.7274L32.3865 35.519L30.6475 39.3094L23.3235 26.7508L25.4725 22.2229L18.8201 18.2712L30.5249 18.2032L36.1776 28.3563Z" fill="white"/>
<path d="M39.1078 28.6736L45.9879 24.4264L45.0168 21.9335L34.893 21.7518L32.5258 18.3185L47.0634 18.4504L49.8544 22.6134L56.6532 18.9191L50.7235 29.011L39.1078 28.6736Z" fill="white"/>
</g>
<defs>
<filter id="filter0_d_121_6" x="0.820068" y="3.20312" width="73.8332" height="69.168" filterUnits="userSpaceOnUse" color-interpolation-filters="sRGB">
<feFlood flood-opacity="0" result="BackgroundImageFix"/>
<feColorMatrix in="SourceAlpha" type="matrix" values="0 0 0 0 0 0 0 0 0 0 0 0 0 0 0 0 0 0 127 0" result="hardAlpha"/>
<feOffset dy="3"/>
<feGaussianBlur stdDeviation="9"/>
<feComposite in2="hardAlpha" operator="out"/>
<feColorMatrix type="matrix" values="0 0 0 0 1 0 0 0 0 0.9 0 0 0 0 0.9 0 0 0 1 0"/>
<feBlend mode="normal" in2="BackgroundImageFix" result="effect1_dropShadow_121_6"/>
<feBlend mode="normal" in="SourceGraphic" in2="effect1_dropShadow_121_6" result="shape"/>
</filter>
</defs>
</svg>
