<svg width="30" height="24" viewBox="0 0 30 24" fill="none" xmlns="http://www.w3.org/2000/svg">
<path d="M17.75 3C14.5744 3 12 5.57436 12 8.75V15.8569C12 16.2711 12.3358 16.6069 12.75 16.6069C13.1642 16.6069 13.5 16.2711 13.5 15.8569V8.75C13.5 6.40279 15.4028 4.5 17.75 4.5H24.7629C25.1771 4.5 25.5129 4.16421 25.5129 3.75C25.5129 3.33579 25.1771 3 24.7629 3H17.75Z" fill="black"/>
<path fill-rule="evenodd" clip-rule="evenodd" d="M27.1526 6.54326C23.9116 6.18104 20.5884 6.18104 17.3475 6.54326C16.4242 6.64645 15.6823 7.37304 15.5734 8.30348C15.1891 11.59 15.1891 14.91 15.5734 18.1965C15.6823 19.127 16.4242 19.8535 17.3475 19.9567C20.5884 20.319 23.9116 20.319 27.1526 19.9567C28.0758 19.8535 28.8178 19.127 28.9266 18.1965C29.311 14.91 29.311 11.59 28.9266 8.30348C28.8178 7.37304 28.0758 6.64645 27.1526 6.54326ZM17.5141 8.03398C20.6443 7.68413 23.8557 7.68413 26.9859 8.03398C27.2233 8.0605 27.4099 8.24821 27.4367 8.47773C27.8076 11.6484 27.8076 14.8516 27.4367 18.0223C27.4099 18.2518 27.2233 18.4395 26.9859 18.466C23.8557 18.8159 20.6443 18.8159 17.5141 18.466C17.2767 18.4395 17.0901 18.2518 17.0633 18.0223C16.6924 14.8516 16.6924 11.6484 17.0633 8.47773C17.0901 8.24821 17.2767 8.0605 17.5141 8.03398Z" fill="black"/>
</svg>
