<svg width="29" height="29" viewBox="0 0 29 29" fill="none" xmlns="http://www.w3.org/2000/svg">
<path fill-rule="evenodd" clip-rule="evenodd" d="M12.975 3.92725C12.0402 3.92725 11.2605 4.64165 11.1788 5.57286C11.0082 7.51983 10.965 9.47547 11.0494 11.4273C10.9475 11.4341 10.8456 11.4412 10.7437 11.4487L8.94392 11.5799C7.79353 11.6637 7.15045 12.9464 7.77151 13.9184C9.09606 15.9913 10.8028 17.7934 12.8007 19.2286L13.5217 19.7466C14.1063 20.1665 14.8938 20.1665 15.4784 19.7466L16.1994 19.2286C18.1973 17.7934 19.9041 15.9913 21.2286 13.9184C21.8497 12.9464 21.2066 11.6637 20.0562 11.5799L18.2564 11.4487C18.1545 11.4412 18.0526 11.4341 17.9507 11.4273C18.0351 9.47547 17.9919 7.51982 17.8213 5.57285C17.7396 4.64165 16.9599 3.92725 16.0251 3.92725H12.975ZM12.9069 12.2221C12.7695 10.0626 12.7951 7.89562 12.9837 5.73975H16.0164C16.205 7.89562 16.2307 10.0626 16.0933 12.2221C16.0778 12.4642 16.1602 12.7024 16.3218 12.8834C16.4834 13.0643 16.7108 13.1729 16.9531 13.1848C17.3438 13.2041 17.7343 13.2279 18.1246 13.2564L19.4317 13.3516C18.2723 15.0594 16.8205 16.5508 15.142 17.7565L14.5001 18.2177L13.8581 17.7565C12.1796 16.5508 10.7278 15.0594 9.56839 13.3516L10.8755 13.2564C11.2658 13.2279 11.6563 13.2041 12.047 13.1848C12.2893 13.1729 12.5167 13.0643 12.6783 12.8834C12.8399 12.7024 12.9223 12.4642 12.9069 12.2221Z" fill="white"/>
<path d="M6.94788 20.5418C6.94788 20.0413 6.54213 19.6356 6.04163 19.6356C5.54112 19.6356 5.13538 20.0413 5.13538 20.5418V22.9585C5.13538 24.1263 6.08211 25.0731 7.24996 25.0731H21.75C22.9178 25.0731 23.8645 24.1263 23.8645 22.9585V20.5418C23.8645 20.0413 23.4588 19.6356 22.9583 19.6356C22.4578 19.6356 22.052 20.0413 22.052 20.5418V22.9585C22.052 23.1253 21.9168 23.2606 21.75 23.2606H7.24996C7.08312 23.2606 6.94788 23.1253 6.94788 22.9585V20.5418Z" fill="white"/>
</svg>
