<svg width="39" height="43" viewBox="0 0 39 43" fill="none" xmlns="http://www.w3.org/2000/svg">
<path d="M19.8365 1.00763C18.285 -0.335875 15.7151 -0.335877 14.1636 1.00762L6.58537 7.56976C6.15014 7.94663 5.85768 8.42307 5.74483 8.93906C4.82448 13.1472 4.75654 17.4552 5.54387 21.6823L5.82262 23.1788C5.91067 23.6515 6.39624 24 6.96685 24H12.2622C12.6983 24 13.0518 23.7036 13.0518 23.3379V14.0689H20.9483V23.3379C20.9483 23.7036 21.3018 24 21.7379 24H27.0332C27.6038 24 28.0893 23.6515 28.1774 23.1788L28.4561 21.6823C29.2435 17.4552 29.1755 13.1472 28.2552 8.93906C28.1423 8.42307 27.8499 7.94663 27.4146 7.56976L19.8365 1.00763Z" fill="#C2C2C2"/>
<path d="M9.03711 42V32.1357H7.50586V36.3057H2.44043V32.1357H0.90918V42H2.44043V37.6318H7.50586V42H9.03711ZM13.6907 42.1367C15.7484 42.1367 17.1019 40.7217 17.1019 38.4043C17.1019 36.0938 15.7415 34.6787 13.6907 34.6787C11.64 34.6787 10.2796 36.0938 10.2796 38.4043C10.2796 40.7217 11.6331 42.1367 13.6907 42.1367ZM13.6907 40.9199C12.5355 40.9199 11.7835 40.0039 11.7835 38.4043C11.7835 36.8115 12.5355 35.8955 13.6907 35.8955C14.846 35.8955 15.598 36.8115 15.598 38.4043C15.598 40.0039 14.8529 40.9199 13.6907 40.9199ZM18.1735 42H19.65V37.5566C19.65 36.6338 20.2721 35.9502 21.1471 35.9502C21.9811 35.9502 22.5075 36.4766 22.5075 37.3037V42H23.9567V37.5088C23.9567 36.5996 24.5651 35.9502 25.4401 35.9502C26.3151 35.9502 26.8141 36.4834 26.8141 37.4131V42H28.2975V37.0576C28.2975 35.6289 27.3678 34.6855 25.9459 34.6855C24.9205 34.6855 24.0729 35.2188 23.7038 36.0938H23.6696C23.3825 35.1982 22.6579 34.6855 21.6598 34.6855C20.6891 34.6855 19.9371 35.2188 19.6159 36.0186H19.5817V34.8086H18.1735V42ZM32.664 35.8682C33.6963 35.8682 34.3935 36.6406 34.4277 37.7412H30.832C30.9072 36.6543 31.6318 35.8682 32.664 35.8682ZM34.4209 39.8877C34.2226 40.5166 33.6005 40.9404 32.7597 40.9404C31.5771 40.9404 30.8252 40.1133 30.8252 38.8623V38.7734H35.9043V38.2676C35.9043 36.0869 34.6601 34.6787 32.664 34.6787C30.6338 34.6787 29.3349 36.1826 29.3349 38.4385C29.3349 40.708 30.6132 42.1367 32.7255 42.1367C34.373 42.1367 35.6171 41.2002 35.8222 39.8877H34.4209Z" fill="#C2C2C2"/>
</svg>
