<svg width="56" height="46" viewBox="0 0 56 46" fill="none" xmlns="http://www.w3.org/2000/svg">
<path d="M0.957031 35.1357V45H2.1875V41.4795H4.46387C6.31641 41.4795 7.63574 40.1738 7.63574 38.3008C7.63574 36.4346 6.33008 35.1357 4.47754 35.1357H0.957031ZM2.1875 36.2295H4.15625C5.57129 36.2295 6.37109 36.9951 6.37109 38.3008C6.37109 39.6133 5.56445 40.3857 4.15625 40.3857H2.1875V36.2295ZM8.79621 45H9.98566V40.5703C9.98566 39.5654 10.5872 38.9023 11.5101 38.9023C11.7972 38.9023 12.0501 38.9365 12.1458 38.9707V37.8154C12.0501 37.8018 11.8724 37.7676 11.6673 37.7676C10.8333 37.7676 10.1771 38.2666 9.94465 39.0527H9.9173V37.8906H8.79621V45ZM15.651 45.123C17.6129 45.123 18.9391 43.708 18.9391 41.4453C18.9391 39.1758 17.6129 37.7676 15.651 37.7676C13.6823 37.7676 12.3561 39.1758 12.3561 41.4453C12.3561 43.708 13.6823 45.123 15.651 45.123ZM15.651 44.0771C14.3932 44.0771 13.5661 43.1201 13.5661 41.4453C13.5661 39.7705 14.3932 38.8135 15.651 38.8135C16.9088 38.8135 17.7291 39.7705 17.7291 41.4453C17.7291 43.1201 16.9088 44.0771 15.651 44.0771ZM20.455 45H21.6445V38.8682H23.0937V37.8906H21.6377V37.1045C21.6377 36.4004 21.9453 36.0586 22.5879 36.0586C22.7861 36.0586 22.9843 36.0791 23.1279 36.0996V35.1357C22.957 35.1084 22.6699 35.0811 22.4033 35.0811C21.0908 35.0811 20.455 35.7305 20.455 37.0977V37.8906H19.4638V38.8682H20.455V45ZM24.3157 45H25.5052V37.8906H24.3157V45ZM24.9104 36.6943C25.3206 36.6943 25.6555 36.3594 25.6555 35.9561C25.6555 35.5459 25.3206 35.2178 24.9104 35.2178C24.5071 35.2178 24.1721 35.5459 24.1721 35.9561C24.1721 36.3594 24.5071 36.6943 24.9104 36.6943ZM27.1031 45H28.2926V35.1357H27.1031V45ZM32.6796 38.7998C33.8007 38.7998 34.5458 39.6475 34.5732 40.8369H30.7109C30.7861 39.6543 31.5654 38.7998 32.6796 38.7998ZM34.5458 42.9629C34.3476 43.6328 33.6845 44.0908 32.7821 44.0908C31.5038 44.0908 30.704 43.1953 30.704 41.835V41.7666H35.8036V41.3154C35.8036 39.1621 34.621 37.7676 32.7001 37.7676C30.7382 37.7676 29.4804 39.2646 29.4804 41.4727C29.4804 43.708 30.7177 45.123 32.7548 45.123C34.3066 45.123 35.5097 44.207 35.7148 42.9629H34.5458Z" fill="#C2C2C2"/>
<path fill-rule="evenodd" clip-rule="evenodd" d="M11.6875 9.375C11.6875 6.44099 14.066 4.0625 17 4.0625C19.934 4.0625 22.3125 6.44099 22.3125 9.375C22.3125 12.309 19.934 14.6875 17 14.6875C14.066 14.6875 11.6875 12.309 11.6875 9.375ZM17 5.9375C15.1015 5.9375 13.5625 7.47652 13.5625 9.375C13.5625 11.2735 15.1015 12.8125 17 12.8125C18.8985 12.8125 20.4375 11.2735 20.4375 9.375C20.4375 7.47652 18.8985 5.9375 17 5.9375Z" fill="#CACACA"/>
<path fill-rule="evenodd" clip-rule="evenodd" d="M12 18.4375C10.4467 18.4375 9.1875 19.6967 9.1875 21.25V22.7354C9.1875 22.758 9.20389 22.7773 9.22621 22.7809C14.3747 23.6215 19.6253 23.6215 24.7738 22.7809C24.7961 22.7773 24.8125 22.758 24.8125 22.7354V21.25C24.8125 19.6967 23.5533 18.4375 22 18.4375H21.5739C21.541 18.4375 21.5082 18.4427 21.4769 18.4529L20.395 18.8062C18.189 19.5265 15.811 19.5265 13.605 18.8062L12.5231 18.4529C12.4918 18.4427 12.459 18.4375 12.4261 18.4375H12ZM7.3125 21.25C7.3125 18.6612 9.41116 16.5625 12 16.5625H12.4261C12.6567 16.5625 12.8859 16.599 13.1051 16.6706L14.187 17.0238C16.0148 17.6207 17.9852 17.6207 19.813 17.0238L20.8949 16.6706C21.1141 16.599 21.3433 16.5625 21.5739 16.5625H22C24.5888 16.5625 26.6875 18.6612 26.6875 21.25V22.7354C26.6875 23.6769 26.0051 24.4797 25.0759 24.6314C19.7274 25.5046 14.2726 25.5046 8.92409 24.6314C7.99485 24.4797 7.3125 23.6769 7.3125 22.7354V21.25Z" fill="#CACACA"/>
</svg>
