<svg width="56" height="46" viewBox="0 0 56 46" fill="none" xmlns="http://www.w3.org/2000/svg">
<path d="M2.1875 36.2295H4.49121C5.7627 36.2295 6.52832 36.9336 6.52832 38.1162C6.52832 39.3262 5.81055 40.0098 4.5459 40.0098H2.1875V36.2295ZM2.1875 41.0967H4.5459L6.6582 45H8.10059L5.81738 40.9053C7.05469 40.5156 7.7998 39.4492 7.7998 38.0752C7.7998 36.2979 6.55566 35.1357 4.65527 35.1357H0.957031V45H2.1875V41.0967ZM11.9476 38.7998C13.0687 38.7998 13.8138 39.6475 13.8411 40.8369H9.97883C10.054 39.6543 10.8333 38.7998 11.9476 38.7998ZM13.8138 42.9629C13.6155 43.6328 12.9525 44.0908 12.0501 44.0908C10.7718 44.0908 9.97199 43.1953 9.97199 41.835V41.7666H15.0716V41.3154C15.0716 39.1621 13.889 37.7676 11.9681 37.7676C10.0062 37.7676 8.74836 39.2646 8.74836 41.4727C8.74836 43.708 9.98566 45.123 12.0228 45.123C13.5745 45.123 14.7777 44.207 14.9827 42.9629H13.8138ZM25.2487 37.8906H24.0729L22.651 43.6738H22.6237L21.0104 37.8906H19.862L18.2555 43.6738H18.2282L16.8063 37.8906H15.6237L17.6129 45H18.8229L20.4225 39.4971H20.4498L22.0563 45H23.2662L25.2487 37.8906ZM28.3642 44.1113C27.5097 44.1113 26.9423 43.667 26.9423 42.9902C26.9423 42.3203 27.4892 41.8965 28.4463 41.835L30.3466 41.7188V42.2998C30.3466 43.3252 29.4853 44.1113 28.3642 44.1113ZM28.0976 45.123C29.0546 45.123 29.957 44.5898 30.3808 43.7764H30.4082V45H31.5361V40.085C31.5361 38.6699 30.4834 37.7676 28.8154 37.7676C27.1338 37.7676 26.081 38.7109 25.999 39.9414H27.1474C27.2978 39.2441 27.872 38.8135 28.788 38.8135C29.7724 38.8135 30.3466 39.333 30.3466 40.2012V40.7959L28.3095 40.9121C26.6689 41.0078 25.7324 41.7734 25.7324 42.9902C25.7324 44.2686 26.6826 45.123 28.0976 45.123ZM32.9768 45H34.1663V40.5703C34.1663 39.5654 34.7679 38.9023 35.6907 38.9023C35.9778 38.9023 36.2307 38.9365 36.3264 38.9707V37.8154C36.2307 37.8018 36.053 37.7676 35.8479 37.7676C35.0139 37.7676 34.3577 38.2666 34.1253 39.0527H34.0979V37.8906H32.9768V45ZM39.5787 45.123C40.6041 45.123 41.4176 44.6172 41.8756 43.7969H41.8961V45H43.0309V35.1357H41.8414V39.0459H41.8141C41.3902 38.2666 40.5699 37.7676 39.5514 37.7676C37.7604 37.7676 36.5367 39.2168 36.5367 41.4453C36.5367 43.6738 37.7672 45.123 39.5787 45.123ZM39.8043 38.8135C41.0279 38.8135 41.8482 39.8594 41.8482 41.4453C41.8482 43.0381 41.0279 44.0771 39.8043 44.0771C38.5465 44.0771 37.7535 43.0586 37.7535 41.4453C37.7535 39.8389 38.5465 38.8135 39.8043 38.8135ZM44.4443 39.8525C44.4443 40.8232 45.0595 41.4658 46.3105 41.7871L47.5614 42.1084C48.3613 42.3203 48.6552 42.5938 48.6552 43.0996C48.6552 43.7422 48.0605 44.1523 47.0966 44.1523C46.1327 44.1523 45.5722 43.7559 45.4423 43.0176H44.2529C44.3759 44.2754 45.4628 45.123 47.0214 45.123C48.6825 45.123 49.8515 44.248 49.8515 43.0107C49.8515 41.9648 49.332 41.4453 47.8964 41.083L46.7958 40.8164C45.9892 40.6113 45.6132 40.2832 45.6132 39.791C45.6132 39.1689 46.1874 38.7383 47.0556 38.7383C47.9306 38.7383 48.4843 39.1621 48.5663 39.8457H49.7011C49.6464 38.6426 48.5663 37.7676 47.0966 37.7676C45.5312 37.7676 44.4443 38.6357 44.4443 39.8525Z" fill="#C2C2C2"/>
<path fill-rule="evenodd" clip-rule="evenodd" d="M18.0625 9.06244V8.91259C18.0625 6.20291 19.897 3.83699 22.5213 3.16217C23.4913 2.91274 24.5087 2.91274 25.4787 3.16217C28.103 3.83699 29.9375 6.20292 29.9375 8.9126V9.06244H31.8139C32.528 9.06244 33.1341 9.58617 33.2376 10.2927L33.5109 12.1583C34.0491 15.8314 34.0491 19.5633 33.5109 23.2363C33.251 25.0101 31.8207 26.3814 30.0375 26.5664L29.2514 26.6479C25.7598 27.01 22.2402 27.01 18.7486 26.6479L17.9625 26.5664C16.1793 26.3814 14.749 25.0101 14.4891 23.2363C13.9509 19.5633 13.9509 15.8314 14.4891 12.1583L14.7624 10.2927C14.8659 9.58617 15.472 9.06244 16.1861 9.06244H18.0625ZM22.9883 4.9781C23.652 4.80743 24.348 4.80743 25.0117 4.9781C26.8073 5.43982 28.0625 7.05861 28.0625 8.9126V9.06244H19.9375V8.91259C19.9375 7.0586 21.1927 5.43982 22.9883 4.9781ZM18.0625 10.9374V13.7499C18.0625 14.2677 18.4822 14.6874 19 14.6874C19.5178 14.6874 19.9375 14.2677 19.9375 13.7499V10.9374H28.0625V13.7499C28.0625 14.2677 28.4822 14.6874 29 14.6874C29.5178 14.6874 29.9375 14.2677 29.9375 13.7499V10.9374H31.437L31.6557 12.4301C32.1675 15.9229 32.1675 19.4717 31.6557 22.9645C31.5202 23.8897 30.7741 24.6049 29.8441 24.7014L29.058 24.7829C25.695 25.1316 22.305 25.1316 18.942 24.7829L18.1559 24.7014C17.2258 24.6049 16.4798 23.8897 16.3442 22.9645C15.8325 19.4717 15.8325 15.9229 16.3442 12.4301L16.563 10.9374H18.0625Z" fill="#CACACA"/>
</svg>
