<svg width="42" height="42" viewBox="0 0 42 42" fill="none" xmlns="http://www.w3.org/2000/svg">
<path d="M21 31.9375C20.2751 31.9375 19.6875 32.5251 19.6875 33.25C19.6875 33.9749 20.2751 34.5625 21 34.5625H31.5C33.1914 34.5625 34.5625 33.1914 34.5625 31.5V10.5C34.5625 8.80863 33.1914 7.4375 31.5 7.4375H21C20.2751 7.4375 19.6875 8.02513 19.6875 8.75C19.6875 9.47487 20.2751 10.0625 21 10.0625L31.5 10.0625C31.7416 10.0625 31.9375 10.2584 31.9375 10.5L31.9375 31.5C31.9375 31.7416 31.7416 31.9375 31.5 31.9375H21Z" fill="black"/>
<path fill-rule="evenodd" clip-rule="evenodd" d="M5.6875 22.9516C5.6875 24.1598 6.66688 25.1391 7.875 25.1391H15.947C15.9585 25.2676 15.9704 25.3961 15.9829 25.5245L16.0774 26.4973C16.2217 27.9815 17.7978 28.8703 19.1425 28.2259C22.0024 26.8553 24.765 24.7985 26.9586 22.5081C27.771 21.66 27.771 20.3224 26.9586 19.4742L26.785 19.2929C24.5914 17.0026 22.0024 15.1271 19.1425 13.7565C17.7977 13.112 16.2217 14.0009 16.0774 15.4851L15.9829 16.4578C15.9704 16.5863 15.9585 16.7147 15.947 16.8432L7.875 16.8432C6.66688 16.8432 5.6875 17.8226 5.6875 19.0307V22.9516ZM18.4681 23.6787C18.3938 23.019 17.8348 22.5141 17.1639 22.5141H8.3125L8.3125 19.4682H17.1639C17.8571 19.4682 18.4308 18.9292 18.4739 18.2374C18.5057 17.7284 18.5462 17.2198 18.5956 16.7118L18.623 16.4294C20.9065 17.6062 22.9848 19.1466 24.776 20.9912C24.0281 21.7613 23.2302 22.4785 22.3882 23.1383C21.2135 24.0587 19.9531 24.8675 18.623 25.5529L18.5956 25.2706C18.5462 24.7626 18.5057 24.254 18.4739 23.7449C18.4725 23.7227 18.4706 23.7006 18.4681 23.6787Z" fill="black"/>
</svg>
