<svg width="39" height="45" viewBox="0 0 39 45" fill="none" xmlns="http://www.w3.org/2000/svg">
<path d="M6.43262 36.1729H6.50098L8.77734 44H9.93945L12.626 34.1357H11.3408L9.36523 42.1885H9.31055L7.08887 34.1357H5.84473L3.62305 42.1885H3.56836L1.59277 34.1357H0.307617L2.99414 44H4.15625L6.43262 36.1729ZM15.0238 43.1113C14.1693 43.1113 13.6019 42.667 13.6019 41.9902C13.6019 41.3203 14.1488 40.8965 15.1058 40.835L17.0062 40.7188V41.2998C17.0062 42.3252 16.1448 43.1113 15.0238 43.1113ZM14.7571 44.123C15.7142 44.123 16.6165 43.5898 17.0404 42.7764H17.0677V44H18.1956V39.085C18.1956 37.6699 17.1429 36.7676 15.4749 36.7676C13.7933 36.7676 12.7405 37.7109 12.6585 38.9414H13.807C13.9573 38.2441 14.5316 37.8135 15.4476 37.8135C16.432 37.8135 17.0062 38.333 17.0062 39.2012V39.7959L14.9691 39.9121C13.3284 40.0078 12.3919 40.7734 12.3919 41.9902C12.3919 43.2686 13.3421 44.123 14.7571 44.123ZM19.6979 44H20.8873V34.1357H19.6979V44ZM22.4853 44H23.6748V34.1357H22.4853V44ZM28.0618 37.7998C29.1829 37.7998 29.928 38.6475 29.9554 39.8369H26.093C26.1682 38.6543 26.9475 37.7998 28.0618 37.7998ZM29.928 41.9629C29.7298 42.6328 29.0667 43.0908 28.1643 43.0908C26.886 43.0908 26.0862 42.1953 26.0862 40.835V40.7666H31.1858V40.3154C31.1858 38.1621 30.0032 36.7676 28.0823 36.7676C26.1204 36.7676 24.8626 38.2646 24.8626 40.4727C24.8626 42.708 26.0999 44.123 28.137 44.123C29.6887 44.123 30.8919 43.207 31.097 41.9629H29.928ZM32.7018 35.1748V36.8906H31.6422V37.8682H32.7018V42.1543C32.7018 43.5215 33.2076 44.0547 34.5133 44.0547C34.7936 44.0547 35.1217 44.0342 35.2652 44V43.002C35.1832 43.0156 34.9098 43.0361 34.773 43.0361C34.1646 43.0361 33.8912 42.7422 33.8912 42.0928V37.8682H35.2721V36.8906H33.8912V35.1748H32.7018Z" fill="#00C1B6"/>
<path d="M21.375 14.9998C21.375 13.9643 22.2145 13.1248 23.25 13.1248C24.2855 13.1248 25.125 13.9643 25.125 14.9998C25.125 16.0353 24.2855 16.8748 23.25 16.8748C22.2145 16.8748 21.375 16.0353 21.375 14.9998Z" fill="#00C1B6"/>
<path fill-rule="evenodd" clip-rule="evenodd" d="M27.5517 8.34231C26.7295 6.41023 24.9127 5.02132 22.7508 4.79383L21.936 4.70808C17.8206 4.27502 13.6697 4.30357 9.56063 4.79322L9.02071 4.85756C6.93471 5.10614 5.2819 6.7359 5.00405 8.8182C4.4566 12.9211 4.4566 17.0785 5.00405 21.1814C5.2819 23.2637 6.93472 24.8935 9.02071 25.142L9.56064 25.2064C13.6697 25.696 17.8206 25.7246 21.936 25.2915L22.7508 25.2058C24.9127 24.9783 26.7295 23.5894 27.5517 21.6573C28.8508 21.2705 29.8422 20.1443 30.005 18.7528C30.2966 16.2593 30.2966 13.7403 30.005 11.2468C29.8422 9.85531 28.8508 8.72909 27.5517 8.34231ZM21.7398 6.57279C17.7634 6.15435 13.7527 6.18194 9.7825 6.65505L9.24257 6.71939C8.00656 6.86668 7.02721 7.83236 6.86258 9.06618C6.33709 13.0045 6.33709 16.9951 6.86258 20.9334C7.02721 22.1672 8.00656 23.1329 9.24257 23.2802L9.7825 23.3446C13.7527 23.8177 17.7634 23.8453 21.7398 23.4268L22.5546 23.3411C23.6178 23.2292 24.5585 22.7051 25.2104 21.9272C23.3252 22.0372 21.415 21.988 19.5522 21.7799C17.9655 21.6025 16.6823 20.3531 16.4951 18.7528C16.2034 16.2593 16.2034 13.7403 16.4951 11.2468C16.6823 9.64651 17.9655 8.39709 19.5522 8.21975C21.415 8.01156 23.3252 7.96243 25.2104 8.07237C24.5585 7.29447 23.6178 6.77041 22.5546 6.65853L21.7398 6.57279ZM26.0967 10.0182C26.0975 10.023 26.0982 10.0278 26.099 10.0326L26.1065 10.0812L26.3548 10.0426C26.4833 10.0553 26.6116 10.0688 26.7396 10.0831C27.4739 10.1652 28.0585 10.7454 28.1427 11.4647C28.4174 13.8134 28.4174 16.1862 28.1427 18.535C28.0585 19.2542 27.4739 19.8344 26.7396 19.9165C26.6116 19.9308 26.4833 19.9443 26.3548 19.957L26.1065 19.9184L26.099 19.967C26.0982 19.9718 26.0975 19.9766 26.0967 19.9814C23.9984 20.1713 21.8465 20.1496 19.7604 19.9165C19.0262 19.8344 18.4415 19.2542 18.3574 18.535C18.0827 16.1862 18.0827 13.8134 18.3574 11.4647C18.4415 10.7454 19.0262 10.1652 19.7604 10.0831C21.8465 9.85 23.9984 9.82834 26.0967 10.0182Z" fill="#00C1B6"/>
</svg>
